# xmcd CD database file
#
# Track frame offsets:
#	150
#	19281
#	37409
#	51719
#	72151
#	88700
#	114968
#	134124
#	155961
#	176892
#	194073
#	207836
#	232418
#	250266
#	265197
#	282218
#	298965
#	317717
#
# Disc length: 4469 seconds
#
# Revision: 0
# Processed by: cddbd v1.5.1PL2 Copyright (c) Steve Scherf et al.
# Submitted via: CDex 1.51
#
DISCID=36117312
DTITLE=Jazz Lips - Hotter Than That - CD1
DYEAR=2005
DGENRE=Jazz
TTITLE0=Jazz Lips
TTITLE1=Keyhole Blues
TTITLE2=Gimme Dat Ol' Time Religion
TTITLE3=Wölfchen's Boogie
TTITLE4=Put 'em Down Blues
TTITLE5=Limehouse Blues
TTITLE6=Bozo
TTITLE7=2:19 Blues
TTITLE8=Washboard Wiggles
TTITLE9=Eh La Bas!
TTITLE10=Savoy Blues
TTITLE11=Chinatown, My Chinatown
TTITLE12=West End Blues
TTITLE13=Wild Cat Blues
TTITLE14=Heebie Jeebies
TTITLE15=Stack 'O Lee Blues
TTITLE16=The World Is Waiting For The Sunrise
TTITLE17=Blue Bells Goodbye
EXTD=YEAR: 2005
EXTT0=
EXTT1=
EXTT2=
EXTT3=
EXTT4=
EXTT5=
EXTT6=
EXTT7=
EXTT8=
EXTT9=
EXTT10=
EXTT11=
EXTT12=
EXTT13=
EXTT14=
EXTT15=
EXTT16=
EXTT17=
PLAYORDER=
